<?xml version="1.0" encoding="UTF-8"?>
<svg width="202px" height="52px" viewBox="0 0 202 52" version="1.1" xmlns="http://www.w3.org/2000/svg" xmlns:xlink="http://www.w3.org/1999/xlink">
    <!-- Generator: Sketch 52.5 (67469) - http://www.bohemiancoding.com/sketch -->
    <title>Combined Shape</title>
    <desc>Created with Sketch.</desc>
    <g id="Symbols" stroke="none" stroke-width="1" fill="none" fill-rule="evenodd">
        <g id="logo" fill="#050706">
            <g id="Combined-Shape">
                <path d="M79.1225586,17.8300781 L79.1347656,20.515625 L73.9956055,20.515625 L73.9956055,35.3349609 L71.1269531,35.3349609 L71.1269531,20.515625 L66,20.515625 L66,17.8300781 L79.1225586,17.8300781 Z M91.1098633,21.8217773 L93.2460938,21.8339844 L93.2460938,35.3227539 L91.012207,35.3227539 L90.7436523,33.6870117 C90.1251597,34.3136425 89.3968141,34.7998843 88.5585938,35.145752 C87.7203734,35.4916196 86.8170621,35.6645508 85.8486328,35.6645508 C84.5302668,35.6645508 83.3339897,35.3573436 82.2597656,34.7429199 C81.1855415,34.1284963 80.3432648,33.2780816 79.7329102,32.1916504 C79.1225555,31.1052192 78.8173828,29.8987697 78.8173828,28.5722656 C78.8173828,27.2376235 79.1225555,26.031174 79.7329102,24.9528809 C80.3432648,23.8745877 81.1855415,23.0302765 82.2597656,22.4199219 C83.3339897,21.8095673 84.5302668,21.5043945 85.8486328,21.5043945 C86.8252002,21.5043945 87.7366494,21.6793602 88.5830078,22.0292969 C89.4293662,22.3792335 90.1617808,22.8756478 90.7802734,23.5185547 L91.1098633,21.8217773 Z M82.8945312,31.7460938 C83.7327516,32.5843141 84.7866147,33.003418 86.0561523,33.003418 C87.3256899,33.003418 88.3775186,32.5822796 89.2116699,31.7399902 C90.0458212,30.8977009 90.4628906,29.8418032 90.4628906,28.5722656 C90.4628906,27.302728 90.0458212,26.2488649 89.2116699,25.4106445 C88.3775186,24.5724242 87.3256899,24.1533203 86.0561523,24.1533203 C84.7866147,24.1533203 83.7327516,24.5744587 82.8945312,25.416748 C82.0563109,26.2590374 81.637207,27.3108661 81.637207,28.5722656 C81.637207,29.8418032 82.0563109,30.8997354 82.8945312,31.7460938 Z M103.683105,21.7607422 L104.879395,21.7607422 L104.879395,24.3852539 L103.414551,24.3852539 C102.275222,24.3852539 101.41667,24.7026335 100.838867,25.3374023 C100.261065,25.9721711 99.972168,26.9039652 99.972168,28.1328125 L99.972168,35.3349609 L97.2011719,35.3349609 L97.2011719,21.8339844 L99.0810547,21.8339844 L99.5449219,23.6772461 C100.505213,22.3995704 101.884594,21.7607422 103.683105,21.7607422 Z M115.816895,35.3349609 L111.776367,29.5732422 L110.091797,29.5732422 L110.091797,35.3349609 L107.320801,35.3349609 L107.320801,17 L110.091797,17 L110.091797,27.0585938 L111.800781,27.0585938 L115.438477,21.8339844 L118.734375,21.8339844 L114.156738,28.315918 L119.210449,35.3349609 L115.816895,35.3349609 Z M132.088867,21.8217773 L134.225098,21.8339844 L134.225098,35.3227539 L131.991211,35.3227539 L131.722656,33.6870117 C131.104164,34.3136425 130.375818,34.7998843 129.537598,35.145752 C128.699377,35.4916196 127.796066,35.6645508 126.827637,35.6645508 C125.509271,35.6645508 124.312994,35.3573436 123.23877,34.7429199 C122.164545,34.1284963 121.322269,33.2780816 120.711914,32.1916504 C120.101559,31.1052192 119.796387,29.8987697 119.796387,28.5722656 C119.796387,27.2376235 120.101559,26.031174 120.711914,24.9528809 C121.322269,23.8745877 122.164545,23.0302765 123.23877,22.4199219 C124.312994,21.8095673 125.509271,21.5043945 126.827637,21.5043945 C127.804204,21.5043945 128.715653,21.6793602 129.562012,22.0292969 C130.40837,22.3792335 131.140785,22.8756478 131.759277,23.5185547 L132.088867,21.8217773 Z M123.873535,31.7460938 C124.711755,32.5843141 125.765619,33.003418 127.035156,33.003418 C128.304694,33.003418 129.356523,32.5822796 130.190674,31.7399902 C131.024825,30.8977009 131.441895,29.8418032 131.441895,28.5722656 C131.441895,27.302728 131.024825,26.2488649 130.190674,25.4106445 C129.356523,24.5724242 128.304694,24.1533203 127.035156,24.1533203 C125.765619,24.1533203 124.711755,24.5744587 123.873535,25.416748 C123.035315,26.2590374 122.616211,27.3108661 122.616211,28.5722656 C122.616211,29.8418032 123.035315,30.8997354 123.873535,31.7460938 Z M147.604004,32.6616211 L154.879395,32.6616211 L154.879395,35.3349609 L144.723145,35.3349609 L144.723145,17.8300781 L147.604004,17.8300781 L147.604004,32.6616211 Z M168.246094,21.8217773 L170.382324,21.8339844 L170.382324,35.3227539 L168.148438,35.3227539 L167.879883,33.6870117 C167.26139,34.3136425 166.533045,34.7998843 165.694824,35.145752 C164.856604,35.4916196 163.953293,35.6645508 162.984863,35.6645508 C161.666497,35.6645508 160.47022,35.3573436 159.395996,34.7429199 C158.321772,34.1284963 157.479495,33.2780816 156.869141,32.1916504 C156.258786,31.1052192 155.953613,29.8987697 155.953613,28.5722656 C155.953613,27.2376235 156.258786,26.031174 156.869141,24.9528809 C157.479495,23.8745877 158.321772,23.0302765 159.395996,22.4199219 C160.47022,21.8095673 161.666497,21.5043945 162.984863,21.5043945 C163.961431,21.5043945 164.87288,21.6793602 165.719238,22.0292969 C166.565597,22.3792335 167.298011,22.8756478 167.916504,23.5185547 L168.246094,21.8217773 Z M160.030762,31.7460938 C160.868982,32.5843141 161.922845,33.003418 163.192383,33.003418 C164.46192,33.003418 165.513749,32.5822796 166.3479,31.7399902 C167.182052,30.8977009 167.599121,29.8418032 167.599121,28.5722656 C167.599121,27.302728 167.182052,26.2488649 166.3479,25.4106445 C165.513749,24.5724242 164.46192,24.1533203 163.192383,24.1533203 C161.922845,24.1533203 160.868982,24.5744587 160.030762,25.416748 C159.192541,26.2590374 158.773438,27.3108661 158.773438,28.5722656 C158.773438,29.8418032 159.192541,30.8997354 160.030762,31.7460938 Z M181.563965,21.5043945 C183.59848,21.5043945 185.27693,22.1737401 186.599365,23.5124512 C187.9218,24.8511623 188.583008,26.5418192 188.583008,28.5844727 C188.583008,30.61085 187.9218,32.2974379 186.599365,33.6442871 C185.27693,34.9911363 183.59848,35.6645508 181.563965,35.6645508 C179.667797,35.6645508 178.076829,35.0419984 176.791016,33.796875 L176.437012,35.3349609 L174.337402,35.3349609 L174.337402,17 L177.108398,17 L177.108398,23.0791016 C178.36166,22.0292916 179.846834,21.5043945 181.563965,21.5043945 Z M178.17041,31.7338867 C179.016769,32.5802451 180.074701,33.003418 181.344238,33.003418 C182.613776,33.003418 183.665605,32.5843141 184.499756,31.7460938 C185.333907,30.9078734 185.750977,29.8540103 185.750977,28.5844727 C185.750977,27.3149351 185.333907,26.2590374 184.499756,25.416748 C183.665605,24.5744587 182.613776,24.1533203 181.344238,24.1533203 C180.074701,24.1533203 179.018803,24.5764932 178.176514,25.4228516 C177.334224,26.26921 176.913086,27.3230731 176.913086,28.5844727 C176.913086,29.8377341 177.33219,30.8875283 178.17041,31.7338867 Z M199.996582,34.4926758 C198.9956,35.2739297 197.673185,35.6645508 196.029297,35.6645508 C194.385408,35.6645508 193.065028,35.2454469 192.068115,34.4072266 C191.071203,33.5690062 190.552409,32.4500396 190.511719,31.050293 L193.22168,31.050293 C193.254232,31.7420282 193.537025,32.2770977 194.070068,32.6555176 C194.603111,33.0339374 195.288733,33.2231445 196.126953,33.2231445 C196.891931,33.2231445 197.522621,33.0664892 198.019043,32.7531738 C198.515465,32.4398585 198.763672,32.0105822 198.763672,31.465332 C198.763672,31.2211902 198.704672,31.0014658 198.58667,30.8061523 C198.468668,30.6108389 198.326254,30.4541835 198.159424,30.3361816 C197.992594,30.2181797 197.756593,30.1103521 197.451416,30.0126953 C197.146239,29.9150386 196.873618,29.8417971 196.633545,29.7929688 C196.393472,29.7441404 196.069989,29.6831058 195.663086,29.6098633 C195.248045,29.5366207 194.918458,29.4755862 194.674316,29.4267578 C194.430175,29.3779294 194.112795,29.2985845 193.722168,29.1887207 C193.331541,29.0788569 193.016196,28.9628912 192.776123,28.8408203 C192.53605,28.7187494 192.273602,28.5559906 191.98877,28.3525391 C191.703937,28.1490875 191.482179,27.9232597 191.323486,27.6750488 C191.164794,27.426838 191.030518,27.1236997 190.920654,26.765625 C190.81079,26.4075503 190.755859,26.0128602 190.755859,25.581543 C190.755859,24.3689718 191.238032,23.3863156 192.202393,22.6335449 C193.166753,21.8807742 194.430168,21.5043945 195.992676,21.5043945 C197.555184,21.5043945 198.810461,21.8970501 199.758545,22.682373 C200.706629,23.467696 201.192871,24.5154557 201.217285,25.8256836 L198.592773,25.8256836 C198.568359,25.1909148 198.324221,24.7046729 197.860352,24.3669434 C197.396482,24.0292138 196.753585,23.8603516 195.931641,23.8603516 C195.166663,23.8603516 194.560386,24.008869 194.112793,24.3059082 C193.6652,24.6029474 193.441406,24.999672 193.441406,25.4960938 C193.441406,25.6914072 193.473958,25.8643384 193.539062,26.0148926 C193.604167,26.1654467 193.716064,26.2976882 193.874756,26.4116211 C194.033448,26.525554 194.184,26.6191403 194.326416,26.6923828 C194.468832,26.7656254 194.680419,26.8347979 194.961182,26.8999023 C195.241945,26.9650068 195.471842,27.015869 195.650879,27.0524902 C195.829916,27.0891115 196.094399,27.1359047 196.444336,27.1928711 C197.762702,27.4125988 198.710772,27.64453 199.288574,27.8886719 C200.672045,28.4827504 201.404459,29.5284756 201.48584,31.0258789 C201.493978,31.1235356 201.498047,31.2293289 201.498047,31.3432617 C201.498047,32.6534896 200.997564,33.7032838 199.996582,34.4926758 Z M29.7129309,22.2876181 L11.7735849,4.34833892 C15.8812615,1.60292702 20.8174662,0 26.1291127,0 C40.4171237,0 52,11.5827904 52,25.8708442 C52,31.1823862 50.3970778,36.1184851 47.6516741,40.2264151 L29.7126898,22.2877387 L29.7129309,22.2876181 Z M4.33368381,11.7735849 L18.6415094,26.0001195 L4.33380397,40.2264151 C1.59756901,36.1555974 0,31.2638297 0,25.9998805 C0,20.7360508 1.59744884,15.8444026 4.33368381,11.7735849 Z M41.2075472,47.666224 C37.0602556,50.4024413 32.0765673,51.9998798 26.7138162,52 L26.7138162,47.1379902 L12.754717,47.1379902 L26.7138162,33.3584906 L41.2075472,47.666224 Z"></path>
            </g>
        </g>
    </g>
</svg>