<?xml version="1.0" encoding="utf-8"?>
<!-- Generator: Adobe Illustrator 23.0.1, SVG Export Plug-In . SVG Version: 6.00 Build 0)  -->
<svg version="1.1" id="Layer_1" xmlns="http://www.w3.org/2000/svg" xmlns:xlink="http://www.w3.org/1999/xlink" x="0px" y="0px"
	 viewBox="0 0 202 28" style="enable-background:new 0 0 202 28;" xml:space="preserve">
<style type="text/css">
	.st0{fill-rule:evenodd;clip-rule:evenodd;fill:#E74525;}
</style>
<title>Combined Shape</title>
<desc>Created with Sketch.</desc>
<g id="Combined-Shape">
	<path class="st0" d="M19.6,1.2v4h-7.6v22.1H7.6V5.3H0v-4H19.6z M37.5,7.2h3.1v20.1h-3.3L36.9,25c-0.9,0.9-1.9,1.6-3.3,2.2
		S31,28,29.6,28c-1.9,0-3.7-0.4-5.4-1.3s-2.8-2.2-3.7-3.9c-0.9-1.6-1.3-3.4-1.3-5.4c0-1.9,0.4-3.7,1.3-5.4c0.9-1.6,2.2-2.8,3.7-3.7
		s3.4-1.3,5.4-1.3c1.5,0,2.8,0.3,4,0.7c1.2,0.4,2.4,1.2,3.3,2.2L37.5,7.2z M25.2,22c1.2,1.2,2.8,1.9,4.8,1.9s3.4-0.6,4.8-1.9
		c1.3-1.3,1.9-2.8,1.9-4.8s-0.6-3.4-1.9-4.8s-2.8-1.9-4.8-1.9s-3.4,0.6-4.8,1.9c-1.3,1.3-1.9,2.8-1.9,4.8S24,20.8,25.2,22z
		 M56.3,7.2h1.8v3.9h-2.2c-1.6,0-3,0.4-3.9,1.5s-1.3,2.4-1.3,4.2v10.7h-4.2V7.2h2.8L50,9.9C51.5,8.1,53.6,7.2,56.3,7.2z M74.3,27.4
		l-6-8.7h-2.5v8.7h-4.2V0h4.2v15.1h2.5l5.4-7.8h4.9l-6.9,9.7l7.6,10.4h-5.1V27.4z M98.7,7.2h3.1v20.1h-3.3L98.1,25
		c-0.9,0.9-1.9,1.6-3.3,2.2s-2.5,0.7-4,0.7c-1.9,0-3.7-0.4-5.4-1.3s-2.8-2.2-3.7-3.9c-0.9-1.6-1.3-3.4-1.3-5.4
		c0-1.9,0.4-3.7,1.3-5.4c0.9-1.6,2.2-2.8,3.7-3.7c1.5-0.9,3.4-1.3,5.4-1.3c1.5,0,2.8,0.3,4,0.7c1.2,0.4,2.4,1.2,3.3,2.2L98.7,7.2z
		 M86.4,22c1.2,1.2,2.8,1.9,4.8,1.9c1.9,0,3.4-0.6,4.8-1.9c1.3-1.3,1.9-2.8,1.9-4.8s-0.6-3.4-1.9-4.8c-1.3-1.3-2.8-1.9-4.8-1.9
		s-3.4,0.6-4.8,1.9s-1.9,2.8-1.9,4.8C84.5,19.1,85.1,20.8,86.4,22z M121.8,23.5h10.9v4h-15.2V1.2h4.3V23.5z M152.5,7.2h3.1v20.1
		h-3.3l-0.4-2.4c-0.9,0.9-1.9,1.6-3.3,2.2c-1.3,0.6-2.5,0.7-4,0.7c-1.9,0-3.7-0.4-5.4-1.3s-2.8-2.2-3.7-3.9
		c-0.9-1.6-1.3-3.4-1.3-5.4c0-1.9,0.4-3.7,1.3-5.4c0.9-1.6,2.2-2.8,3.7-3.7c1.5-0.9,3.4-1.3,5.4-1.3c1.5,0,2.8,0.3,4,0.7
		c1.2,0.4,2.4,1.2,3.3,2.2L152.5,7.2z M140.3,22c1.2,1.2,2.8,1.9,4.8,1.9s3.4-0.6,4.8-1.9c1.3-1.3,1.9-2.8,1.9-4.8s-0.6-3.4-1.9-4.8
		s-2.8-1.9-4.8-1.9s-3.4,0.6-4.8,1.9c-1.3,1.3-1.9,2.8-1.9,4.8C138.5,19.1,139.1,20.8,140.3,22z M172.5,6.8c3,0,5.5,1,7.5,3
		c1.9,1.9,3,4.5,3,7.6c0,3-1,5.5-3,7.6c-1.9,2.1-4.5,3-7.5,3c-2.8,0-5.2-0.9-7.2-2.8l-0.6,2.2h-3.1V0h4.2v9.1
		C167.8,7.5,169.8,6.8,172.5,6.8z M167.5,22c1.2,1.2,2.8,1.9,4.8,1.9c1.9,0,3.4-0.6,4.8-1.9c1.2-1.2,1.9-2.8,1.9-4.8
		s-0.6-3.4-1.9-4.8s-2.8-1.9-4.8-1.9c-1.9,0-3.4,0.6-4.8,1.9c-1.3,1.3-1.9,2.8-1.9,4.8S166.1,20.8,167.5,22z M200,26.2
		c-1.5,1.2-3.4,1.8-6,1.8c-2.5,0-4.5-0.6-6-1.9c-1.5-1.3-2.2-3-2.4-5.1h4c0,1,0.4,1.8,1.2,2.4c0.7,0.6,1.8,0.9,3.1,0.9
		c1.2,0,2.1-0.3,2.8-0.7c0.7-0.4,1-1,1-1.9c0-0.3-0.1-0.7-0.3-1c-0.1-0.3-0.4-0.6-0.6-0.7c-0.1-0.1-0.6-0.3-1-0.4
		c-0.4-0.1-0.9-0.3-1.2-0.3c-0.3,0-0.9-0.1-1.5-0.3c-0.6-0.1-1-0.1-1.5-0.3s-0.9-0.1-1.5-0.3c-0.6-0.1-1-0.3-1.3-0.4
		c-0.3-0.1-0.7-0.4-1.2-0.7c-0.4-0.3-0.7-0.6-1-1s-0.4-0.9-0.6-1.3c-0.1-0.4-0.3-1.2-0.3-1.8c0-1.8,0.7-3.3,2.1-4.3
		c1.3-1,3.3-1.6,5.7-1.6c2.4,0,4.2,0.6,5.7,1.8c1.5,1.2,2.1,2.7,2.2,4.6h-3.9c0-0.9-0.4-1.6-1-2.2c-0.6-0.6-1.6-0.7-2.8-0.7
		c-1.2,0-2.1,0.1-2.7,0.6c-0.6,0.4-1,1-1,1.8c0,0.3,0,0.6,0.1,0.7c0.1,0.1,0.3,0.4,0.4,0.6c0.1,0.1,0.4,0.3,0.7,0.4
		c0.3,0.1,0.6,0.1,0.9,0.3c0.3,0.1,0.7,0.1,1,0.3c0.3,0.1,0.6,0.1,1.2,0.1c1.9,0.3,3.4,0.7,4.2,1c2.1,0.9,3.1,2.4,3.3,4.6
		c0,0.1,0,0.3,0,0.4C202.2,23.5,201.5,25,200,26.2z"/>
</g>
</svg>
