<?xml version="1.0" encoding="UTF-8"?>
<svg width="250px" height="100px" viewBox="0 0 250 100" version="1.1" xmlns="http://www.w3.org/2000/svg" xmlns:xlink="http://www.w3.org/1999/xlink">
    <!-- Generator: Sketch 52.5 (67469) - http://www.bohemiancoding.com/sketch -->
    <title>sprite</title>
    <desc>Created with Sketch.</desc>
    <g id="sprite" stroke="none" stroke-width="1" fill="none" fill-rule="evenodd">
        <path d="M31.9710385,77.6975842 C31.8475,77.7386146 31.7206709,77.7781931 31.5913504,77.8166006 C31.3085,76.9217996 30.9256154,75.9674671 30.4512521,74.9730408 C30.901406,74.0054062 31.2715983,73.0594109 31.5485726,72.1677013 C31.7791496,72.2339776 32.0033333,72.3038605 32.2197607,72.3777247 C33.2747265,72.7414718 34.157265,73.201097 34.7629701,73.7047036 C35.2884316,74.1403476 35.5772991,74.5879823 35.5772991,74.9677013 C35.5772991,75.7071392 34.4460385,76.8782399 31.9710385,77.6975842 M31.0484017,79.5281696 C31.5378077,81.9902305 31.0644786,83.5130408 30.4186282,83.8847504 C29.7968462,84.2444694 28.3607821,83.9086849 26.5516581,82.3579589 C26.3636709,82.1970221 26.1740855,82.0247036 25.9837009,81.841987 C26.6163889,81.153275 27.2508632,80.3508863 27.8745256,79.4510736 C28.9659231,79.3539308 29.9957393,79.1957106 30.9252863,78.9816591 C30.9715427,79.1674202 31.0127692,79.3497622 31.0484017,79.5281696 M20.7030427,84.008638 C20.4583162,84.008638 20.2577778,83.9606755 20.1053291,83.8727598 C19.4875427,83.5170221 19.0583547,82.1101369 19.5036197,79.7719636 C19.549312,79.5303711 19.6041709,79.2817528 19.6674915,79.0274671 C20.5851453,79.2302774 21.6033504,79.3770221 22.7019872,79.4652657 C23.3250855,80.3402071 23.9773291,81.1432048 24.6382692,81.8488254 C24.4946111,81.9866708 24.3514701,82.1180994 24.2089872,82.241987 C22.7568462,83.5050315 21.5012949,84.008638 20.7030427,84.008638 M18.4365726,77.6935561 C16.0538034,76.8822212 14.9667308,75.7111205 14.9667308,74.9677013 C14.9667308,74.2522446 15.9776026,73.181097 18.2319915,72.3977247 C18.4784103,72.3121978 18.7370043,72.2315889 19.0057051,72.1558043 C19.2883205,73.0729003 19.6587479,74.0294343 20.104906,74.994727 C19.6532479,75.973275 19.2791068,76.9413781 18.9947051,77.8678886 C18.8024402,77.812713 18.6160983,77.754727 18.4365726,77.6935561 M19.527688,70.3033453 C19.3110726,69.2121978 19.2709274,68.2210034 19.4033034,67.4455935 C19.5196496,66.7741181 19.7643761,66.2984741 20.0932949,66.1106521 C20.7390983,65.7389425 22.3196197,66.126624 24.2691581,67.853275 C24.3816966,67.9527598 24.4947521,68.0570689 24.6081838,68.1649846 C23.9535897,68.8657809 23.3084915,69.6624085 22.6930556,70.5281228 C21.6326838,70.6257341 20.6182393,70.7831111 19.6822991,70.9950081 C19.6239145,70.7603945 19.5720641,70.5294811 19.527688,70.3033453 M29.2433205,72.6935092 C29.0205,72.3099495 28.7916624,71.9354296 28.558265,71.5711205 C29.2770726,71.6614718 29.9672521,71.7816123 30.6170513,71.9291533 C30.4227179,72.5501837 30.1803419,73.2003476 29.8947179,73.8673266 C29.6900897,73.4803945 29.4728632,73.0888254 29.2433205,72.6935092 M25.2835085,68.8513547 C25.725812,69.3291064 26.1695256,69.8630643 26.6063761,70.4427832 C26.1647308,70.4220338 25.7179145,70.4113078 25.2679957,70.4113078 C24.8244701,70.4113078 24.384141,70.4216123 23.9490299,70.4416591 C24.3849872,69.8691533 24.8323675,69.3360853 25.2835085,68.8513547 M21.2967137,72.7014718 C21.072906,73.0879823 20.8599103,73.4767411 20.6581496,73.8657809 C20.3782137,73.2040947 20.1382821,72.5521978 19.9420684,71.9208629 C20.5862265,71.7778652 21.2733974,71.6607223 21.9871752,71.5717762 C21.7505342,71.9395514 21.5198632,72.3165537 21.2967137,72.7014718 M22.0032991,78.4348675 C21.2633846,78.3528066 20.5689274,78.2414249 19.9279188,78.1018933 C20.1273761,77.4615654 20.3729017,76.7960853 20.6581496,76.1214249 C20.8599573,76.5094811 21.072906,76.8969284 21.2967137,77.2818933 C21.5252222,77.6752891 21.7612991,78.0600666 22.0032991,78.4348675 M25.3111966,81.1568816 C24.8546496,80.6655467 24.3989017,80.1218465 23.954906,79.5391298 C24.3842821,79.5557106 24.8236239,79.5641415 25.2719915,79.5641415 C25.7324872,79.5641415 26.187859,79.5536497 26.6359915,79.5334624 C26.1954744,80.1304179 25.7522778,80.6737434 25.3111966,81.1568816 M29.9044957,76.0830174 C30.2071368,76.7693406 30.4605128,77.4305116 30.6616624,78.0589893 C30.0089017,78.2078418 29.3033504,78.3275607 28.5594402,78.4166006 C28.7925085,78.0484975 29.0234145,77.6674202 29.251312,77.2739308 C29.4807607,76.8769284 29.6985983,76.4792235 29.9044957,76.0830174 M28.4169573,76.7982867 C28.0630299,77.4088722 27.7025214,77.9880291 27.3383932,78.5325725 C26.6688974,78.5803476 25.9770726,78.6048441 25.2719915,78.6048441 C24.5668632,78.6048441 23.8857094,78.583439 23.2326667,78.5416591 C22.8484658,77.9835326 22.4785085,77.4006287 22.1310684,76.802268 C21.7821239,76.2016591 21.4605385,75.5955233 21.1688974,74.9920104 C21.4608205,74.3855467 21.7810427,73.7790362 22.1253803,73.1840947 L22.1270726,73.1851252 C22.475547,72.5833921 22.8425427,72.0023617 23.2221838,71.4484507 C23.8952521,71.3973031 24.5825641,71.3705116 25.2719915,71.3705116 C25.967953,71.3705116 26.655265,71.3968348 27.3254658,71.4476544 C27.6985726,71.996179 28.0629829,72.5748675 28.4129615,73.1771158 C28.7688632,73.7893406 29.0935513,74.3914015 29.3860385,74.9791298 C29.0933632,75.5807223 28.7693333,76.1899495 28.4169573,76.7982867 M28.8983248,66.1586146 C29.5401325,65.9227832 30.0736325,65.898802 30.4025983,66.086624 C31.0484017,66.4583336 31.5017051,68.0171626 30.9761966,70.5631579 C30.9461111,70.7081228 30.912359,70.855898 30.8756453,71.0056872 C29.9380598,70.7894343 28.9212179,70.629528 27.8589188,70.5303711 C27.2396282,69.6521509 26.5985256,68.8543055 25.9582222,68.1657341 C26.1307906,68.0004881 26.303312,67.8425959 26.4754573,67.6934155 C27.3178504,66.9619401 28.1562009,66.4303711 28.8983248,66.1586146 M35.3767137,72.9692938 C36.1348675,73.6007692 36.5359915,74.2922446 36.5359915,74.9677013 C36.5359915,76.346624 34.9033846,77.7415186 32.2718932,78.6088722 C32.1355214,78.6539776 31.9954829,78.6973968 31.8525299,78.7395045 C31.9032521,78.9436263 31.9483803,79.1440947 31.9871154,79.3403008 C32.2317949,80.5793172 32.2718932,81.7304647 32.0993718,82.6656872 C31.9149103,83.6609097 31.4977094,84.368357 30.896,84.7161322 C30.5950983,84.8919636 30.2381154,84.9799261 29.8409402,84.9799261 C28.7499188,84.9799261 27.3659402,84.3243757 25.9218376,83.0853593 C25.7186667,82.9111673 25.5150256,82.7261088 25.3115726,82.5311673 C25.1548462,82.6819401 24.9984957,82.8257341 24.8428034,82.9614718 C23.8880598,83.7928066 22.9052521,84.4003476 22.0067308,84.7161322 C21.5373974,84.884001 21.0961282,84.9679355 20.7030427,84.9679355 C20.2938803,84.9679355 19.9328547,84.8799729 19.6279573,84.7040947 C18.4766709,84.0406287 18.075547,82.1301369 18.5609103,79.5921041 C18.6107393,79.3310268 18.669547,79.0641884 18.7370513,78.7925256 C18.5258419,78.7320104 18.3210256,78.6682633 18.1236838,78.6008629 C16.9243077,78.1931814 15.9053974,77.6496216 15.1793034,77.03009 C14.4091624,76.3746333 14,75.6591298 14,74.9677013 C14,73.6407692 15.4601325,72.3417528 17.9111111,71.494446 C18.1793419,71.4014249 18.4588077,71.3141181 18.7476752,71.2322914 C18.6846368,70.9796919 18.6287906,70.73098 18.5809829,70.4872329 C18.3443419,69.2801603 18.3002009,68.172994 18.4526496,67.2817059 C18.6211282,66.3104647 19.0182094,65.6190362 19.6078846,65.2792703 C20.803312,64.5877949 22.8370897,65.2992703 24.9069701,67.1338371 C25.0318248,67.2442821 25.1571966,67.3600198 25.2829444,67.4800198 C25.4704615,67.3000666 25.6581667,67.1282633 25.8456368,66.9659682 C26.776265,66.1586146 27.7189744,65.5670455 28.569406,65.2552891 C29.4960385,64.9155701 30.2982863,64.9155701 30.8839658,65.2513078 C32.0833889,65.9387551 32.4804701,68.0491064 31.918906,70.75098 C31.8852949,70.9133219 31.847406,71.0787551 31.8060385,71.2464835 C32.0542906,71.3181931 32.2955855,71.3940713 32.5286068,71.474446 C33.6959231,71.8741181 34.6787308,72.3937434 35.3767137,72.9692938 Z M25.2820085,73.1850168 C24.1491406,73.1850168 23.2307504,74.103407 23.2307504,75.2362749 C23.2307504,76.3691908 24.1491406,77.2875809 25.2820085,77.2875809 C26.4148765,77.2875809 27.3333145,76.3691908 27.3333145,75.2362749 C27.3333145,74.103407 26.4148765,73.1850168 25.2820085,73.1850168 Z" id="Fill-3" fill="#0D0A1A"></path>
        <path d="M68.8207007,83.1053631 L69.5775311,83.1053631 L69.5775311,82.4924448 L68.8207007,82.4924448 L68.8207007,83.1053631 Z M70.6823663,82.7107138 C70.6242893,83.8219512 69.8559807,83.8343897 69.8559807,83.8343897 L70.9239575,84.9025495 L69.5775311,84.9025495 L68.7789493,84.1038305 L68.7789493,85 L67.9014376,85 L67.9014376,81.5590512 L69.0248391,81.5590512 C69.9131888,81.5590512 70.6823663,81.691165 70.6823663,82.7107138 Z M72.3865837,83.3793769 L73.2316729,83.3793769 L73.2316729,82.4367001 L72.3865837,82.4367001 L72.3865837,83.3793769 Z M72.8091283,81.5730445 C73.2771284,81.5730445 74.1508903,81.6037751 74.1508903,82.3903299 L74.1508903,84.8979308 L73.2454833,84.8979308 L73.2454833,84.3267182 L72.3725903,84.3267182 L72.3725903,84.9118784 L71.4718936,84.9118784 L71.4718936,82.5203401 C71.4718936,81.614796 72.1382702,81.5702093 72.6188003,81.5730445 C72.6874409,81.5735018 72.7505482,81.5730445 72.8091283,81.5730445 Z M75.0534162,84.8669716 L75.0534162,81.5752853 L75.9853008,81.5752853 L75.9853008,84.8669716 L75.0534162,84.8669716 Z M77.8787533,81.604397 L77.8787533,84.0367721 L79.2039153,84.0367721 L79.2039153,84.9107169 L76.9613193,84.9107169 L76.9613193,81.6189391 L77.8787533,81.604397 Z M81.3155086,82.7986433 C81.6502518,82.7986433 82.3494624,82.7841012 82.3494624,83.8329172 C82.3494624,84.8815961 81.868978,84.9398103 80.8932842,84.9398103 L79.7137263,84.9398103 L79.7137263,84.1385761 L81.0679725,84.1385761 C81.4756549,84.1385761 81.4982455,84.0057306 81.4982455,83.8900796 C81.4982455,83.7745201 81.2898084,83.7205588 80.8657548,83.7205588 C80.4417468,83.7205588 79.6554206,83.5122132 79.6554206,82.6965741 C79.6554206,81.880935 80.0631487,81.574956 80.8786963,81.574956 C81.694244,81.574956 82.1748655,81.5898183 82.1748655,81.5898183 L82.1748655,82.4782594 L80.6748323,82.4782594 L80.6748323,82.7986433 L81.3155086,82.7986433 Z M77.6601962,65.932159 C80.5728728,65.6698978 82.8739573,68.0003866 82.8739573,68.0003866 L82.5243063,68.5247718 C82.5243063,68.5247718 81.6504072,67.5342157 80.0486249,67.709087 C78.4466138,67.8838668 75.6214186,69.5152821 75.1844233,73.0983139 C74.747611,76.6813456 76.4660962,80.5848527 76.4660962,80.5848527 L68.7183022,80.5848527 C68.7183022,80.5848527 68.5146211,79.3030427 69.0096934,76.8560797 C69.5047656,74.4091167 70.2329234,72.77793 71.4854205,70.4473039 C72.7377804,68.1168608 74.7474738,66.1942829 77.6601962,65.932159 Z M68.6893552,76.7978426 L68.427094,78.3124637 L67,78.1377296 L67.1747341,76.6813227 L68.6893552,76.7978426 Z M69.9709777,72.3409119 L69.5631582,73.4769349 L68.1942784,73.0399396 L68.6310907,71.8165267 L69.9709777,72.3409119 Z M72.2427356,68.6414106 L71.456318,69.5734323 L70.4078221,68.8742674 L71.223324,67.9713756 L72.2427356,68.6414106 Z M75.1844371,66.2525566 L74.2232853,66.8060717 L73.5242118,65.9613026 L74.4853636,65.4660017 L75.1844371,66.2525566 Z M78.3011744,65.815822 L77.1068914,65.844952 L76.9321574,65 L78.1845173,65.0584429 L78.3011744,65.815822 Z M81.9419264,66.6020522 L81.7671923,66.8641762 L80.9516447,66.4273181 L80.9807289,65.9030244 L81.9419264,66.6020522 Z M81.5922982,68.3207431 L81.5922982,68.6703942 L80.8058805,68.5830043 L80.8058805,68.1461462 L81.5922982,68.3207431 Z M78.3011744,68.5247626 L79.1166763,68.3207614 L79.2331961,68.7868866 L78.6797268,69.2237904 L78.3011744,68.5247626 Z M77.6893124,70.301869 L77.3396614,70.9135069 L76.4950295,69.9814851 L77.1067588,69.42797 L77.6893124,70.301869 Z M75.5631358,72.6030358 L75.9418711,71.8456567 L76.7864115,72.4865617 L76.5534175,73.4479878 L75.5631358,72.6030358 Z M75.475787,75.5160189 L75.5340012,74.49647 L76.6408028,75.0789779 L76.699017,76.0404497 L75.475787,75.5160189 Z M77.7184287,79.2449291 L76.1748605,79.1575849 L75.8834694,78.1087231 L77.1649593,78.1087231 L77.7184287,79.2449291 Z" id="Combined-Shape" fill="#0D0A1A"></path>
        <path d="M116,65 L117.60019,82.9751905 L124.775095,85 L132.000095,82.9751905 L133.600286,65 L116,65 Z M119.275238,68.6751905 L130.325095,68.6751905 L130.124905,70.862381 L121.700381,70.862381 L121.887476,73.1251905 L129.937857,73.1251905 L129.312286,79.9248095 L124.824857,81.1624762 L124.824857,81.1751905 L124.775095,81.1751905 L120.249905,79.9248095 L119.974905,76.4498571 L122.162476,76.4498571 L122.324857,78.2000476 L124.775095,78.862619 L127.237333,78.2000476 L127.512667,75.3501905 L119.862619,75.3501905 L119.275238,68.6751905 Z" id="Fill-1" fill="#0D0A1A"></path>
        <path d="M170.431043,76.5172503 L170.431043,69.1896481 L173.051674,69.1896481 L173.051674,76.5344282 C173.051674,79.8447591 171.465547,80.9999751 168.931024,80.9999751 C168.310378,80.9999751 167.517299,80.8965341 167,80.7241324 L167.293114,78.6034667 C167.655189,78.7241479 168.120705,78.8103488 168.63791,78.8103488 C169.741343,78.8103488 170.431043,78.3103215 170.431043,76.5172503 Z M179.758091,73.9138225 C181.809734,74.6724523 182.758006,75.7414052 182.758006,77.3965551 C182.758006,79.344819 181.275258,81 178.085639,81 C176.758021,81 175.447644,80.6378941 174.79258,80.2758194 L175.327025,78.1206112 C176.016632,78.4826548 177.120096,78.8447607 178.240801,78.8447607 C179.447706,78.8447607 180.085624,78.3447957 180.085624,77.5689257 C180.085624,76.8620475 179.533907,76.4310432 178.13736,75.9482561 C176.206305,75.258587 174.930501,74.1896341 174.930501,72.4827948 C174.930501,70.5000194 176.602891,69 179.326994,69 C180.654612,69 181.602821,69.2586959 182.292521,69.5862281 L181.706293,71.6896536 C181.258018,71.4655624 180.413156,71.1379369 179.292576,71.1379369 C178.154631,71.1379369 177.602883,71.6724134 177.602883,72.2586415 C177.602883,73.0000311 178.240801,73.3275633 179.758091,73.9138225 Z" id="Combined-Shape" fill="#0D0A1A"></path>
        <path d="M210.367188,66.1757812 C211.294922,63.9785156 213.296875,61.8789062 216.470703,61 C219.498047,62.3671875 224.283203,66.3710938 224.283203,72.6699219 C224.283203,78.8710938 217.59375,85.0722656 211.978516,88.6855469 C210.464844,88.2949219 209.683594,87.6113281 209,86.4882812 C212.955078,81.3125 215.054688,76.7714844 215.054688,73.4023438 C215.054688,72.1816406 212.466797,67.9824219 210.367188,66.1757812 Z M228.677734,66.1757812 C229.605469,63.9785156 231.607422,61.8789062 234.78125,61 C237.808594,62.3671875 242.59375,66.3710938 242.59375,72.6699219 C242.59375,78.8710938 235.904297,85.0722656 230.289062,88.6855469 C228.775391,88.2949219 227.994141,87.6113281 227.310547,86.4882812 C231.265625,81.3125 233.365234,76.7714844 233.365234,73.4023438 C233.365234,72.1816406 230.777344,67.9824219 228.677734,66.1757812 Z" id="”" fill="#0D0A1A"></path>
        <g id="Group" transform="translate(15.000000, 20.000000)" stroke="#23307E" stroke-linecap="round" stroke-linejoin="round">
            <path d="M20.5,5.5 L0.655273438,5.5" id="Line-9"></path>
            <polyline id="Path-2" points="4.76855469 0 0 5.458 4.76855469 10.6943271"></polyline>
        </g>
        <g id="Group-Copy" transform="translate(225.500000, 25.500000) scale(-1, 1) translate(-225.500000, -25.500000) translate(215.000000, 20.000000)" stroke="#23307E" stroke-linecap="round" stroke-linejoin="round">
            <path d="M20.5,5.5 L0.655273438,5.5" id="Line-9"></path>
            <polyline id="Path-2" points="4.76855469 0 0 5.458 4.76855469 10.6943271"></polyline>
        </g>
        <path d="M128.857151,25.4285755 C128.857151,27.3214349 127.321435,28.857151 125.428576,28.857151 C123.535716,28.857151 122,27.3214349 122,25.4285755 C122,23.5357161 123.535716,22 125.428576,22 C127.321435,22 128.857151,23.5357161 128.857151,25.4285755 Z" id="" fill="#0D0A1A"></path>
        <path d="M77.8459891,21.8337064 C77.8459891,21.9140636 77.8058105,22.0044655 77.7455426,22.0647334 L73.7979932,26.0122828 L77.7455426,29.9598321 C77.8058105,30.0201 77.8459891,30.1105019 77.8459891,30.1908592 C77.8459891,30.2712164 77.8058105,30.3616183 77.7455426,30.4218862 L77.2433098,30.924119 C77.1830419,30.9843869 77.09264,31.0245655 77.0122828,31.0245655 C76.9319255,31.0245655 76.8415236,30.9843869 76.7812557,30.924119 L72.1004465,26.2433098 C72.0401786,26.1830419 72,26.09264 72,26.0122828 C72,25.9319255 72.0401786,25.8415236 72.1004465,25.7812557 L76.7812557,21.1004465 C76.8415236,21.0401786 76.9319255,21 77.0122828,21 C77.09264,21 77.1830419,21.0401786 77.2433098,21.1004465 L77.7455426,21.6026793 C77.8058105,21.6629472 77.8459891,21.7433045 77.8459891,21.8337064 Z" id="" fill="#23307E"></path>
        <path d="M177.845989,21.8337064 C177.845989,21.9140636 177.80581,22.0044655 177.745543,22.0647334 L173.797993,26.0122828 L177.745543,29.9598321 C177.80581,30.0201 177.845989,30.1105019 177.845989,30.1908592 C177.845989,30.2712164 177.80581,30.3616183 177.745543,30.4218862 L177.24331,30.924119 C177.183042,30.9843869 177.09264,31.0245655 177.012283,31.0245655 C176.931926,31.0245655 176.841524,30.9843869 176.781256,30.924119 L172.100447,26.2433098 C172.040179,26.1830419 172,26.09264 172,26.0122828 C172,25.9319255 172.040179,25.8415236 172.100447,25.7812557 L176.781256,21.1004465 C176.841524,21.0401786 176.931926,21 177.012283,21 C177.09264,21 177.183042,21.0401786 177.24331,21.1004465 L177.745543,21.6026793 C177.80581,21.6629472 177.845989,21.7433045 177.845989,21.8337064 Z" id="-copy" fill="#23307E" transform="translate(174.922995, 26.012283) scale(-1, 1) translate(-174.922995, -26.012283) "></path>
    </g>
</svg>